<svg width="24" height="24" viewBox="0 0 24 24" fill="none" xmlns="http://www.w3.org/2000/svg">
<path d="M12 4.5C12.2363 4.5 12.4222 4.56465 12.5938 4.69531L12.5996 4.7002L18.5996 9.2002L18.6084 9.20605C18.7275 9.29341 18.821 9.40316 18.8936 9.54785C18.9656 9.69159 19.0003 9.83779 19 9.99805V19C19 19.2824 18.9112 19.4999 18.7051 19.7061C18.499 19.9122 18.2819 20.0003 18.001 20H15V15C15 14.4644 14.8074 13.9683 14.418 13.5801C14.0304 13.1938 13.5358 13.0013 13.002 13H11C10.4644 13 9.96828 13.1926 9.58008 13.582C9.19384 13.9696 9.00126 14.4642 9 14.998V20H6C5.71707 20 5.50004 19.9112 5.29492 19.7061C5.11545 19.5266 5.02411 19.3375 5.00391 19.1025L5 18.999V10C5 9.83903 5.03506 9.69223 5.10742 9.54785C5.1803 9.40255 5.27391 9.29333 5.39258 9.20605L11.4004 4.7002L11.4062 4.69531C11.5778 4.56466 11.7637 4.5 12 4.5Z" stroke="#1B1B1B" stroke-width="2"/>
</svg>
