<svg width="28" height="33" viewBox="0 0 28 33" fill="none" xmlns="http://www.w3.org/2000/svg">
<path d="M6.83333 31.8333H20.86C22.4071 31.8333 23.8908 31.2188 24.9848 30.1248C26.0788 29.0308 26.6933 27.5471 26.6933 26V16.7833C26.6939 15.2364 26.08 13.7527 24.9867 12.6583L15.0383 2.70833C14.4966 2.16667 13.8535 1.73702 13.1457 1.4439C12.438 1.15078 11.6794 0.999945 10.9133 1H6.83333C5.28624 1 3.80251 1.61458 2.70854 2.70854C1.61458 3.80251 1 5.28624 1 6.83333V26C1 27.5471 1.61458 29.0308 2.70854 30.1248C3.80251 31.2188 5.28624 31.8333 6.83333 31.8333Z" stroke="#1B1B1B" stroke-width="1.5" stroke-linecap="round" stroke-linejoin="round"/>
<path d="M13.3267 1.60001V11.0333C13.3267 11.9174 13.6779 12.7652 14.303 13.3904C14.9281 14.0155 15.7759 14.3667 16.66 14.3667H26.0967" stroke="#1B1B1B" stroke-width="1.5" stroke-linecap="round" stroke-linejoin="round"/>
<path d="M5.92999 23.9167V22.25M5.92999 22.25V18.9167H7.59666C8.03869 18.9167 8.46261 19.0923 8.77517 19.4048C9.08773 19.7174 9.26333 20.1413 9.26333 20.5833C9.26333 21.0254 9.08773 21.4493 8.77517 21.7618C8.46261 22.0744 8.03869 22.25 7.59666 22.25H5.92999ZM19.2633 23.9167V21.8333M19.2633 21.8333V18.9167H21.7633M19.2633 21.8333H21.7633M12.5967 23.9167V18.9167H13.43C14.093 18.9167 14.7289 19.18 15.1978 19.6489C15.6666 20.1177 15.93 20.7536 15.93 21.4167C15.93 22.0797 15.6666 22.7156 15.1978 23.1844C14.7289 23.6533 14.093 23.9167 13.43 23.9167H12.5967Z" stroke="#1B1B1B" stroke-linecap="round" stroke-linejoin="round"/>
</svg>
